<?xml version="1.0" encoding="UTF-8"?>
<svg width="1186px" height="422px" viewBox="0 0 1186 422" version="1.1" xmlns="http://www.w3.org/2000/svg" xmlns:xlink="http://www.w3.org/1999/xlink">
    <title>plntify</title>
    <g id="plntify" stroke="none" stroke-width="1" fill="none" fill-rule="evenodd">
        <rect id="Rectangle" fill="#3FC008" fill-rule="nonzero" x="234" y="306" width="691" height="30"></rect>
        <path d="M704,155.501938 C704,122.818384 717.6106,97.0615725 744.523937,70.8783725 C747.130859,68.3738758 751.849121,68.3738758 753.476063,70.8783725 C780.3894,97.0615725 794,122.818384 794,155.501938 C794,187.385434 781.047592,216.311072 755.428571,242.015179 L755.428571,278 L742.571429,278 L742.571429,242.015179 C716.952408,216.311072 704,187.385434 704,155.501938 Z" id="Shape" stroke="#3FC008" stroke-width="8.19999981" fill="#3FC008" fill-rule="nonzero"></path>
        <path d="M743,222 L743,92 C725.605486,112.635613 717,131.69237 717,156.00054 C717,180.308709 725.605486,201.364387 743,222 Z" id="Path" stroke="#3FC008" stroke-width="8.19999981" fill="#FFFFFF" fill-rule="nonzero"></path>
        <path d="M781,222 L781,92 C763.605486,112.635613 755,131.69237 755,156.00054 C755,180.308709 763.605486,201.364387 781,222 Z" id="Path" stroke="#3FC008" stroke-width="8.19999981" fill="#FFFFFF" fill-rule="nonzero" transform="translate(768.000000, 157.000000) scale(-1, 1) translate(-768.000000, -157.000000) "></path>
        <line x1="751.071429" y1="151.928571" x2="778" y2="127.071429" id="Line" stroke="#3FC008" stroke-width="16.3999996" stroke-linecap="square"></line>
        <line x1="751.055556" y1="188.944444" x2="783.944444" y2="156.055556" id="Line-Copy" stroke="#3FC008" stroke-width="16.3999996" stroke-linecap="square"></line>
        <path d="M166.463039,336 L166.463039,266.454545 C175.657426,276.818182 187.71937,282 202.648871,282 C220.218344,282 234.169233,275.159091 244.50154,261.477273 C254.833847,247.795455 260,229.590909 260,206.863636 L260,206.863636 L260,204.818182 C260,181.181818 254.947639,162.636364 244.842916,149.181818 C234.738193,135.727273 220.582478,129 202.37577,129 C186.991102,129 174.519507,134.727273 164.960986,146.181818 L164.960986,146.181818 L163.595483,131.727273 L127,131.727273 L127,336 L166.463039,336 Z M192.271047,250.227273 C179.890486,250.227273 171.287817,245.363636 166.463039,235.636364 L166.463039,235.636364 L166.463039,175.227273 C171.105749,165.772727 179.617385,161.045455 191.997947,161.045455 C201.283368,161.045455 208.361225,164.772727 213.23152,172.227273 C218.101814,179.681818 220.536961,190.272727 220.536961,204 C220.536961,234.818182 211.11499,250.227273 192.271047,250.227273 Z" id="plnt" fill="#767676" fill-rule="nonzero"></path>
        <polygon id="Path" fill="#767676" fill-rule="nonzero" points="349 279 349 94 310 94 310 279"></polygon>
        <path d="M445.296574,279 L445.296574,175.143376 C450.826196,165.705989 459.120628,160.987296 470.179872,160.987296 C478.610278,160.987296 484.638473,162.870236 488.264454,166.636116 C491.890435,170.401996 493.703426,176.459165 493.703426,184.807623 L493.703426,184.807623 L493.703426,279 L533,279 L533,183.854809 C532.818701,165.615245 528.920771,151.912886 521.30621,142.747731 C513.691649,133.582577 502.088508,129 486.496788,129 C468.820128,129 454.724126,135.578947 444.208779,148.736842 L444.208779,148.736842 L442.985011,131.722323 L406,131.722323 L406,279 L445.296574,279 Z" id="Path" fill="#767676" fill-rule="nonzero"></path>
        <path d="M640.049767,282 C640.481523,282 650.518797,282 650.981768,282 C658.29855,282 662.637961,282 664,282 L664,249.612016 C660.624158,250.247074 656.746501,249.612016 652.36703,249.612016 C646.436496,249.612016 642.148263,249.597052 640.049767,247.238263 C637.95127,244.879474 637.175739,239.81397 637.175739,234.370612 L637.175739,160.88527 L662.494557,160.88527 L662.494557,132.035469 L637.175739,132.035469 L637.175739,94 L597.623639,94 L597.623639,132.035469 L576,132.035469 L576,160.88527 L597.623639,160.88527 L597.623639,240.222222 C598.171073,268.074074 612.313116,282 640.049767,282 Z" id="Path" fill="#767676" fill-rule="nonzero"></path>
        <path d="M890.412766,279 L890.412766,160.541426 L919.689362,160.541426 L919.689362,131.675658 L890.412766,131.675658 L890.412766,119.829801 C890.412766,105.941554 897.811348,98.997431 912.608511,98.997431 C917.329078,98.997431 921.323404,99.4059088 924.591489,100.222864 L925,69.7231856 C917.102128,67.9077285 910.429787,67 904.982979,67 C887.916312,67 874.639716,71.5613359 865.153191,80.6840077 C855.666667,89.8066795 850.923404,102.628345 850.923404,119.149004 L850.923404,131.675658 L829,131.675658 L829,160.541426 L850.923404,160.541426 L850.923404,279 L890.412766,279 Z" id="fy" fill="#767676" fill-rule="nonzero"></path>
        <path d="M987.009418,336 C1018.13316,336.135626 1026.77723,328.97146 1035.57241,309.75031 L1038.83659,301.998383 L1098,132 L1055.83757,132 L1028.63601,223.52713 L1001.29843,132 L959,132 L1010.54697,279.558597 L1005.9227,291.662482 C1003.83725,296.921098 1002.07058,301.640994 998.398366,303.907639 C994.726155,306.174284 988.060339,306.350342 980.625245,306.350342 L974.6409,306.214343 C974.6409,324.559279 974.6409,334.487831 974.6409,336 C980.625245,336 981.297114,335.972812 987.009418,336 Z" id="Path" fill="#767676" fill-rule="nonzero"></path>
    </g>
</svg>